HIERARCHY
ROOT Hips
{
	OFFSET 0.000000 0.000000 0.000000
	CHANNELS 6 Xposition Yposition Zposition Xrotation Yrotation Zrotation
	JOINT LeftUpLeg_virtual
	{
		OFFSET 0.000000 0.000000 0.000000
		CHANNELS 3 Xrotation Yrotation Zrotation
		JOINT LeftUpLeg
		{
			OFFSET 10.205400 -3.823500 0.155100
			CHANNELS 3 Xrotation Yrotation Zrotation
			JOINT LeftLeg
			{
				OFFSET 0.708757 -12.982077 0.567790
				CHANNELS 3 Xrotation Yrotation Zrotation
				JOINT LeftFoot
				{
					OFFSET -0.708756 -10.717838 -2.184338
					CHANNELS 3 Xrotation Yrotation Zrotation
					JOINT LeftToeBase
					{
						OFFSET 0.108149 -7.191104 7.560241
						CHANNELS 3 Xrotation Yrotation Zrotation
						JOINT LeftToe_End
						{
							OFFSET 0.070230 0.081724 4.490308
							CHANNELS 3 Xrotation Yrotation Zrotation
							End Site
							{
								OFFSET 0 0 0
							}
						}
					}
				}
			}
		}
	}
	JOINT RightUpLeg_virtual
	{
		OFFSET 0.000000 0.000000 0.000000
		CHANNELS 3 Xrotation Yrotation Zrotation
		JOINT RightUpLeg
		{
			OFFSET -10.205400 -3.823500 0.005500
			CHANNELS 3 Xrotation Yrotation Zrotation
			JOINT RightLeg
			{
				OFFSET -0.708756 -12.982134 0.610632
				CHANNELS 3 Xrotation Yrotation Zrotation
				JOINT RightFoot
				{
					OFFSET 0.708754 -10.717769 -1.945823
					CHANNELS 3 Xrotation Yrotation Zrotation
					JOINT RightToeBase
					{
						OFFSET -0.108140 -7.191069 7.372968
						CHANNELS 3 Xrotation Yrotation Zrotation
						JOINT RightToe_End
						{
							OFFSET -0.070227 0.081735 4.479403
							CHANNELS 3 Xrotation Yrotation Zrotation
							End Site
							{
								OFFSET 0 0 0
							}
						}
					}
				}
			}
		}
	}
	JOINT Spine_virtual
	{
		OFFSET 0.000000 0.000000 0.000000
		CHANNELS 3 Xrotation Yrotation Zrotation
		JOINT Spine
		{
			OFFSET 0.000000 6.876099 0.125700
			CHANNELS 3 Xrotation Yrotation Zrotation
			JOINT Spine1
			{
				OFFSET 0.000000 5.730043 0.104720
				CHANNELS 3 Xrotation Yrotation Zrotation
				JOINT Spine1_split
				{
					OFFSET 0.000000 5.730043 0.104720
					CHANNELS 3 Xrotation Yrotation Zrotation
					JOINT Spine2
					{
						OFFSET 0.000000 5.730043 0.104720
						CHANNELS 3 Xrotation Yrotation Zrotation
						JOINT Neck_virtual
						{
							OFFSET 0.000000 0.000000 0.000000
							CHANNELS 3 Xrotation Yrotation Zrotation
							JOINT Neck
							{
								OFFSET 0.000000 10.314075 0.188496
								CHANNELS 3 Xrotation Yrotation Zrotation
								JOINT Head
								{
									OFFSET 0.000000 7.643700 -2.377400
									CHANNELS 3 Xrotation Yrotation Zrotation
									JOINT HeadTop_End
									{
										OFFSET 0.000000 43.788605 -13.619600
										CHANNELS 3 Xrotation Yrotation Zrotation
										End Site
										{
											OFFSET 0 0 0
										}
									}
								}
							}
						}
						JOINT LeftShoulder_virtual
						{
							OFFSET 0.000000 0.000000 0.000000
							CHANNELS 3 Xrotation Yrotation Zrotation
							JOINT LeftShoulder
							{
								OFFSET 2.196100 4.412489 0.087492
								CHANNELS 3 Xrotation Yrotation Zrotation
								JOINT LeftShoulder_split
								{
									OFFSET 2.196100 4.412489 0.087492
									CHANNELS 3 Xrotation Yrotation Zrotation
									JOINT LeftArm
									{
										OFFSET 8.771219 -2.981674 -0.026999
										CHANNELS 3 Xrotation Yrotation Zrotation
										JOINT LeftForeArm
										{
											OFFSET 8.512804 0.000000 -0.000000
											CHANNELS 3 Xrotation Yrotation Zrotation
											JOINT LeftHand
											{
												OFFSET 18.484802 0.000000 -0.000000
												CHANNELS 3 Xrotation Yrotation Zrotation
												End Site
												{
													OFFSET 0 0 0
												}
											}
										}
									}
								}
							}
						}
						JOINT RightShoulder_virtual
						{
							OFFSET 0.000000 0.000000 0.000000
							CHANNELS 3 Xrotation Yrotation Zrotation
							JOINT RightShoulder
							{
								OFFSET -2.196100 4.412496 0.070690
								CHANNELS 3 Xrotation Yrotation Zrotation
								JOINT RightShoulder_split
								{
									OFFSET -2.196100 4.412496 0.070690
									CHANNELS 3 Xrotation Yrotation Zrotation
									JOINT RightArm
									{
										OFFSET -8.771282 -2.981682 -0.094208
										CHANNELS 3 Xrotation Yrotation Zrotation
										JOINT RightForeArm
										{
											OFFSET -8.494598 0.000000 0.000000
											CHANNELS 3 Xrotation Yrotation Zrotation
											JOINT RightHand
											{
												OFFSET -18.483803 0.000000 0.000001
												CHANNELS 3 Xrotation Yrotation Zrotation
												End Site
												{
													OFFSET 0 0 0
												}
											}
										}
									}
								}
							}
						}
					}
				}
			}
		}
	}
}
MOTION
Frames: 10
Frame Time: 0.03333333
0.182681 32.241310 -0.388943 0.000000 0.000000 0.000000 7.198585 -17.063300 1.822424 -36.473285 5.635047 10.874568 32.122718 5.419403 1.402542 -4.989852 0.012719 -9.168242 2.148483 -1.181959 -0.490922 0.000000 0.000000 0.000000 8.041253 -17.764690 2.192002 -5.429712 -9.775019 -14.152226 22.709071 -1.938717 0.760099 -25.920942 -9.025477 15.503664 1.266051 1.582005 -1.012317 0.000000 0.000000 0.000000 7.401197 -13.593442 1.616718 25.138105 4.460436 -1.457430 2.602881 2.055073 -1.657892 0.529971 1.433365 0.415546 0.000000 0.000000 0.000000 3.700339 1.657734 -0.940362 -14.295336 1.907634 1.716487 -11.475182 10.232713 -2.195245 0.000000 0.000000 0.000000 3.517208 1.999411 -1.100570 6.919900 -21.176566 8.873177 -0.865698 -0.787087 0.940647 -31.610594 -10.598849 -84.796197 -0.365557 -44.706819 -3.039137 0.000000 0.000000 0.000000 3.931357 1.921134 -0.864270 12.111408 25.679452 -20.393162 -4.877420 1.711233 -1.080608 -43.072891 1.112414 85.893809 -0.627511 60.996991 7.644531 0.000000 0.000000 0.000000 
0.197895 32.240887 -0.401524 0.000000 0.000000 0.000000 7.194796 -17.360864 1.862961 -36.446781 5.528489 10.960046 32.313362 5.630963 1.310249 -5.207154 0.097233 -9.307013 2.252862 -1.182776 -0.511893 0.000000 0.000000 0.000000 8.029338 -17.924542 2.232674 -5.694171 -9.963303 -14.124752 22.716386 -1.843507 0.711683 -25.828248 -8.909773 15.281350 1.445993 1.543689 -0.931271 0.000000 0.000000 0.000000 7.344490 -13.902482 1.579651 25.143531 4.416137 -1.402477 2.581842 2.053227 -1.590353 0.504358 1.349376 0.395575 0.000000 0.000000 0.000000 3.729227 1.700079 -0.918840 -14.192421 2.163310 1.606199 -11.571715 10.684273 -2.640768 0.000000 0.000000 0.000000 3.424919 2.015448 -1.069517 6.899695 -20.895205 8.635859 -0.679482 -1.463951 1.056389 -32.111947 -10.758009 -84.579954 -0.756828 -44.888478 -3.305917 0.000000 0.000000 0.000000 3.905143 1.940019 -0.789358 12.001779 25.664928 -20.154464 -5.032225 1.431268 -0.970075 -42.962648 0.327665 86.050289 -1.350484 61.375260 8.233312 0.000000 0.000000 0.000000 
0.224796 32.220581 -0.440409 0.000000 0.000000 0.000000 7.125076 -18.085666 1.916500 -36.360229 5.419195 11.265705 32.679515 6.035337 1.159675 -5.585322 0.326220 -9.585884 2.373384 -1.173471 -0.556942 0.000000 0.000000 0.000000 7.925038 -18.527580 2.280679 -6.305953 -10.106248 -14.102443 22.880898 -1.451868 0.602302 -25.710000 -8.608085 15.068391 1.554574 1.568609 -0.975231 0.000000 0.000000 0.000000 7.225863 -14.674902 1.582754 25.110769 4.377898 -1.269575 2.566419 2.066710 -1.530119 0.481639 1.236607 0.400706 0.000000 0.000000 0.000000 3.776591 1.742946 -0.900067 -14.091006 2.881097 1.259426 -11.719496 11.747184 -3.401713 0.000000 0.000000 0.000000 3.348460 2.064962 -1.032399 6.781897 -20.624757 7.955260 -0.470586 -2.082842 0.966056 -32.288449 -11.614785 -83.381481 -0.710805 -45.277174 -3.233853 0.000000 0.000000 0.000000 3.913101 1.957667 -0.748529 11.682074 25.501990 -19.639719 -5.199169 1.274592 -0.851073 -43.321322 0.952746 85.711805 -1.929217 61.107551 8.577500 0.000000 0.000000 0.000000 
0.264392 32.187122 -0.508610 0.000000 0.000000 0.000000 6.975451 -19.073051 1.983263 -36.228597 5.355355 11.716113 33.106716 6.608100 0.955178 -6.007154 0.646895 -9.958021 2.468650 -1.155037 -0.605029 0.000000 0.000000 0.000000 7.761753 -19.488700 2.356052 -7.207873 -10.222664 -14.106718 23.283758 -0.778794 0.449190 -25.528261 -8.148448 14.866832 1.603907 1.635412 -1.110013 0.000000 0.000000 0.000000 7.029349 -15.819058 1.635228 25.058171 4.340064 -1.089965 2.576686 2.091027 -1.479824 0.431045 1.071992 0.486623 0.000000 0.000000 0.000000 3.816731 1.782433 -0.871782 -14.005380 3.934996 0.711143 -11.847069 13.193234 -4.312079 0.000000 0.000000 0.000000 3.316401 2.127246 -1.003525 6.584855 -20.367933 6.880534 -0.284688 -2.474585 0.725233 -32.081747 -13.087067 -81.376342 -0.358405 -45.666242 -2.970480 0.000000 0.000000 0.000000 3.955468 1.979848 -0.738416 11.208307 25.232751 -18.934717 -5.353951 1.247607 -0.659509 -44.108197 2.977033 85.011171 -2.328870 60.289820 8.690533 0.000000 0.000000 0.000000 
0.310378 32.145889 -0.601431 0.000000 0.000000 0.000000 6.773508 -20.204500 2.075559 -36.022404 5.351502 12.240553 33.491997 7.312017 0.712528 -6.379287 0.997765 -10.371671 2.536302 -1.131370 -0.636295 0.000000 0.000000 0.000000 7.552030 -20.684547 2.471958 -8.303926 -10.335156 -14.141081 23.870316 0.115712 0.243895 -25.284116 -7.596936 14.615336 1.607417 1.713173 -1.295466 0.000000 0.000000 0.000000 6.781388 -17.200817 1.727148 25.013304 4.288858 -0.907659 2.622103 2.119341 -1.439117 0.542364 0.900423 0.563165 0.000000 0.000000 0.000000 3.834926 1.815509 -0.835120 -13.969612 5.176509 0.003301 -11.937352 14.605620 -5.151064 0.000000 0.000000 0.000000 3.315695 2.187493 -0.991251 6.325271 -20.131414 5.535334 -0.228017 -2.533563 0.557809 -31.475755 -15.089582 -78.775024 0.057942 -46.123543 -2.719669 0.000000 0.000000 0.000000 4.012052 2.010691 -0.752675 10.656955 24.917736 -18.150343 -5.448278 1.150504 -0.451090 -45.133282 6.052168 84.069636 -2.618784 59.128244 8.683827 0.000000 0.000000 0.000000 
0.349628 32.100502 -0.713129 0.000000 0.000000 0.000000 6.553689 -21.384690 2.204390 -35.734600 5.381402 12.773360 33.755673 8.091366 0.467896 -6.637048 1.312808 -10.789247 2.582353 -1.102752 -0.638749 0.000000 0.000000 0.000000 7.327361 -21.947133 2.635042 -9.524110 -10.451891 -14.186421 24.585609 1.132091 -0.008567 -25.023180 -7.027487 14.217344 1.607295 1.782984 -1.493849 0.000000 0.000000 0.000000 6.512503 -18.644053 1.837574 24.990014 4.205181 -0.759348 2.685676 2.145950 -1.406793 0.595519 0.622811 0.565943 0.000000 0.000000 0.000000 3.831596 1.832637 -0.796047 -14.027977 6.400138 -0.797107 -12.041429 15.481860 -5.683971 0.000000 0.000000 0.000000 3.328746 2.229056 -1.002363 6.034119 -19.886396 4.082127 -0.173020 -2.254271 0.450032 -30.586530 -17.369603 -75.847024 0.336282 -46.801078 -2.658842 0.000000 0.000000 0.000000 4.073010 2.045167 -0.781073 10.098115 24.637204 -17.409792 -5.376730 1.015701 -0.175974 -46.147121 9.638560 82.951514 -2.827285 57.836874 8.683870 0.000000 0.000000 0.000000 
0.381094 32.059269 -0.836100 0.000000 0.000000 0.000000 6.332904 -22.599831 2.363220 -35.349740 5.408208 13.297583 33.856411 8.870947 0.264842 -6.732624 1.539102 -11.248584 2.632287 -1.069602 -0.620891 0.000000 0.000000 0.000000 7.097682 -23.233264 2.827074 -10.797698 -10.571146 -14.215278 25.330426 2.183559 -0.290739 -24.749657 -6.487484 13.608353 1.625924 1.845685 -1.663259 0.000000 0.000000 0.000000 6.212503 -20.093144 1.950694 24.987725 4.082909 -0.660617 2.741337 2.154218 -1.385781 0.576883 0.416083 0.534221 0.000000 0.000000 0.000000 3.822371 1.835732 -0.762074 -14.183906 7.431017 -1.619775 -12.299585 15.344326 -5.691378 0.000000 0.000000 0.000000 3.316042 2.248919 -1.040035 5.732331 -19.587311 2.629558 -0.048627 -1.886332 0.291666 -29.496694 -19.736564 -72.886294 0.441273 -47.755785 -2.858901 0.000000 0.000000 0.000000 4.095455 2.065669 -0.810076 9.594114 24.495855 -16.752724 -5.045815 0.949108 0.106204 -46.915729 13.190982 81.720317 -3.014411 56.570571 8.825039 0.000000 0.000000 0.000000 
0.411640 32.028873 -0.969580 0.000000 0.000000 0.000000 6.131207 -23.840598 2.523910 -34.868471 5.405887 13.839279 33.782809 9.615623 0.103802 -6.671814 1.657038 -11.780549 2.705445 -1.036010 -0.581339 0.000000 0.000000 0.000000 6.873910 -24.463584 3.002694 -12.049485 -10.684536 -14.190180 26.035508 3.225613 -0.589040 -24.440616 -6.006407 12.809795 1.707182 1.902881 -1.783185 0.000000 0.000000 0.000000 5.920784 -21.467261 2.034762 24.992350 3.928247 -0.605146 2.767392 2.132601 -1.378766 0.455419 0.245565 0.570233 0.000000 0.000000 0.000000 3.816025 1.814249 -0.746733 -14.450146 8.112082 -2.452042 -12.836453 13.817112 -5.052039 0.000000 0.000000 0.000000 3.239929 2.239130 -1.098962 5.423371 -19.262399 1.277602 0.050169 -1.636142 0.187669 -28.116325 -22.064311 -70.075303 0.434444 -48.930273 -3.260408 0.000000 0.000000 0.000000 4.036600 2.054424 -0.829906 9.206420 24.599473 -16.214705 -4.574717 0.917627 0.335926 -47.299593 16.288077 80.312062 -3.239781 55.527560 9.230173 0.000000 0.000000 0.000000 
0.439128 32.014484 -1.117413 0.000000 0.000000 0.000000 5.950660 -25.087191 2.648192 -34.328968 5.382137 14.438385 33.565189 10.324026 -0.029154 -6.524082 1.673190 -12.349586 2.763519 -1.002540 -0.526781 0.000000 0.000000 0.000000 6.665123 -25.613991 3.125804 -13.234951 -10.739275 -14.064831 26.713210 4.246645 -0.875401 -24.043632 -5.580944 11.880108 1.920947 1.959855 -1.855280 0.000000 0.000000 0.000000 5.649760 -22.739445 2.060095 24.980456 3.749309 -0.568300 2.755750 2.067844 -1.382878 0.265471 0.057508 0.595152 0.000000 0.000000 0.000000 3.815942 1.759382 -0.754321 -14.791181 8.338233 -3.299311 -13.659218 10.638850 -3.767731 0.000000 0.000000 0.000000 3.133077 2.191836 -1.170796 5.134462 -18.989077 0.113695 -0.002944 -1.427245 0.110497 -26.507090 -24.252117 -67.502042 0.442481 -49.999495 -3.694647 0.000000 0.000000 0.000000 3.921971 2.001408 -0.844608 8.973655 25.014287 -15.844077 -4.088393 0.902312 0.478091 -47.329724 18.788167 78.650707 -3.519434 54.767319 9.930193 0.000000 0.000000 0.000000 
0.461145 32.012367 -1.281935 0.000000 0.000000 0.000000 5.762659 -26.344702 2.700672 -33.732675 5.371336 15.151899 33.258257 11.021956 -0.160578 -6.368774 1.626691 -12.937082 2.811739 -0.968266 -0.479656 0.000000 0.000000 0.000000 6.460174 -26.726044 3.172488 -14.353725 -10.675855 -13.817850 27.365049 5.248126 -1.149441 -23.492793 -5.199225 10.912986 2.212751 2.020518 -1.903450 0.000000 0.000000 0.000000 5.397054 -23.928540 2.014704 24.932357 3.558362 -0.526168 2.723262 1.957799 -1.397461 0.161388 -0.114906 0.594846 0.000000 0.000000 0.000000 3.821881 1.681479 -0.778328 -15.122394 8.069501 -4.185679 -14.654552 5.722653 -1.972482 0.000000 0.000000 0.000000 3.050975 2.106031 -1.243208 4.895027 -18.862343 -0.844911 -0.203360 -1.157157 -0.027144 -24.751289 -26.166526 -65.199743 0.521537 -50.524890 -3.971183 0.000000 0.000000 0.000000 3.799190 1.911831 -0.854593 8.931670 25.785767 -15.680748 -3.651721 0.864986 0.557735 -47.126389 20.734228 76.755514 -3.838837 54.267639 10.857640 0.000000 0.000000 0.000000 
